<svg width="48" height="48" viewBox="0 0 48 48" fill="none" xmlns="http://www.w3.org/2000/svg">
<path d="M0 16C0 7.16344 7.16344 0 16 0H32C40.8366 0 48 7.16344 48 16V32C48 40.8366 40.8366 48 32 48H16C7.16344 48 0 40.8366 0 32V16Z" fill="#2A8FD2" fill-opacity="0.24"/>
<g clip-path="url(#clip0_10351_23923)">
<path d="M29.9507 14.0164C30.3384 14.3047 30.7072 14.6228 31.053 14.9685C32.924 16.8394 33.9766 19.3765 33.9797 22.0225C33.9796 24.5925 31.9895 28.6146 28.0647 33.9763C27.5975 34.6164 26.9856 35.1371 26.2791 35.4961C25.5725 35.8551 24.7908 36.0425 23.9983 36.0425C23.2059 36.0424 22.4247 35.855 21.7183 35.4961C21.0118 35.1371 20.3999 34.6164 19.9326 33.9763C16.5416 29.3438 14.5958 25.711 14.1289 23.1511L21.429 18.9368C21.3399 19.0115 21.2531 19.0892 21.1704 19.1719C20.611 19.7313 20.2298 20.4438 20.0754 21.2197C19.9211 21.9956 20.0005 22.7997 20.3032 23.5305C20.6059 24.2613 21.1185 24.8862 21.7761 25.3257C22.4338 25.7652 23.2073 26.0002 23.9983 26.0002C25.0592 26.0002 26.0768 25.5785 26.8269 24.8284C27.577 24.0782 27.9988 23.0606 27.9988 21.9998C27.9987 21.2088 27.7637 20.4353 27.3242 19.7776C26.8847 19.1199 26.2599 18.6074 25.5291 18.3047C24.7982 18.002 23.9941 17.9226 23.2183 18.0769C23.0204 18.1163 22.8264 18.17 22.6382 18.238L29.9507 14.0164Z" fill="#2A8FD2"/>
<path d="M24.0002 12.0417C26.1573 12.0441 28.2422 12.7442 29.9526 14.0164L22.6401 18.238C22.1995 18.3974 21.7909 18.6348 21.4309 18.9368L14.1309 23.1511C14.0574 22.7482 14.0196 22.372 14.0195 22.0225C14.0227 19.3765 15.0753 16.8394 16.9463 14.9685C18.8174 13.0976 21.3543 12.0447 24.0002 12.0417Z" fill="#BFFB4F"/>
</g>
<defs>
<clipPath id="clip0_10351_23923">
<rect width="24" height="24" fill="white" transform="translate(12 12)"/>
</clipPath>
</defs>
</svg>
