<svg width="62" height="62" viewBox="0 0 62 62" fill="none" xmlns="http://www.w3.org/2000/svg">
<rect width="62" height="62" rx="24" fill="white"/>
<g clip-path="url(#clip0_10660_22043)">
<path d="M24.1837 44.9787H17.8932C17.4564 44.9787 17.0195 44.5418 17.0195 44.105V37.7272C17.0195 37.203 17.4564 36.8535 17.8932 36.8535H24.0089V44.105C24.0089 44.3671 24.0963 44.7166 24.1837 44.9787Z" fill="#076AAB"/>
<path d="M36.2438 33.6217V44.1058C36.2438 44.5426 35.807 44.9795 35.3702 44.9795H26.6334C26.1966 44.9795 25.7598 44.5426 25.7598 44.1058V33.6217C25.7598 33.0975 26.1966 32.748 26.6334 32.748H35.3702C35.807 32.748 36.2438 33.0975 36.2438 33.6217Z" fill="#076AAB"/>
<path d="M44.9766 38.8668V44.1089C44.9766 44.5457 44.5398 44.9826 44.103 44.9826H37.8125C37.8999 44.7205 37.9872 44.371 37.9872 44.1089V37.9932H44.103C44.5398 37.9932 44.9766 38.3426 44.9766 38.8668Z" fill="#076AAB"/>
<path d="M38.0764 23.1376L35.1933 25.9333L35.8922 29.9522C35.9796 30.3017 35.8048 30.6511 35.5427 30.8259C35.2806 31.0006 34.8438 31.0006 34.5817 30.9133L30.9996 28.9912L27.4176 30.8259C27.1555 31.0006 26.806 31.0006 26.5439 30.7385C26.2818 30.5638 26.1071 30.2143 26.1944 29.8648L26.8934 25.8459L23.9229 23.1376C23.7481 22.9628 23.6608 22.6134 23.7481 22.2639C23.8355 21.9144 24.0976 21.7397 24.4471 21.6523L28.466 21.0407L30.2133 17.4587C30.4754 16.8471 31.5238 16.8471 31.7859 17.4587L33.5333 21.0407L37.5522 21.6523C37.9017 21.7397 38.1638 21.9144 38.2511 22.2639C38.3385 22.6134 38.2511 22.9628 38.0764 23.1376Z" fill="#8BD500"/>
</g>
<defs>
<clipPath id="clip0_10660_22043">
<rect width="28" height="28" fill="white" transform="translate(17 17)"/>
</clipPath>
</defs>
</svg>
