<svg width="328" height="148" viewBox="0 0 328 148" fill="none" xmlns="http://www.w3.org/2000/svg">
<rect width="328" height="148" rx="74" fill="url(#paint0_radial_11074_17321)"/>
<path d="M196.66 43.5V117.436H72.2891V43.5H196.66Z" stroke="#076AAB" stroke-width="3"/>
<g clip-path="url(#clip0_11074_17321)">
<path d="M140.545 108.004H127.551H118.889H110.227V110.174H157.869V108.004H149.207H140.545Z" fill="#076AAB"/>
<path d="M116.725 90.6406V103.664C116.725 104.24 116.953 104.792 117.359 105.199C117.765 105.606 118.316 105.834 118.89 105.834H127.553C128.127 105.834 128.678 105.606 129.084 105.199C129.49 104.792 129.718 104.24 129.718 103.664V90.6406H125.387V92.8112C125.387 93.099 125.273 93.375 125.07 93.5786C124.867 93.7821 124.591 93.8964 124.304 93.8964C124.017 93.8964 123.742 93.7821 123.539 93.5786C123.335 93.375 123.221 93.099 123.221 92.8112V90.6406H121.056V94.9817C121.056 95.2695 120.942 95.5456 120.739 95.7491C120.536 95.9526 120.26 96.067 119.973 96.067C119.686 96.067 119.41 95.9526 119.207 95.7491C119.004 95.5456 118.89 95.2695 118.89 94.9817V90.6406H116.725ZM124.304 96.067C124.518 96.067 124.728 96.1306 124.906 96.2499C125.084 96.3691 125.223 96.5386 125.305 96.7369C125.386 96.9352 125.408 97.1535 125.366 97.364C125.324 97.5745 125.221 97.7679 125.07 97.9197C124.918 98.0714 124.725 98.1748 124.515 98.2167C124.305 98.2585 124.088 98.2371 123.89 98.1549C123.692 98.0728 123.523 97.9337 123.404 97.7552C123.285 97.5767 123.221 97.3669 123.221 97.1523C123.221 96.8644 123.335 96.5884 123.539 96.3848C123.742 96.1813 124.017 96.067 124.304 96.067Z" fill="#88D1FF"/>
<path d="M140.546 75.4477H149.209C149.783 75.4477 150.334 75.219 150.74 74.812C151.146 74.4049 151.374 73.8528 151.374 73.2772V60.2539H147.043V62.4244C147.043 62.7123 146.929 62.9883 146.726 63.1919C146.523 63.3954 146.248 63.5097 145.96 63.5097C145.673 63.5097 145.398 63.3954 145.195 63.1919C144.992 62.9883 144.878 62.7123 144.878 62.4244V60.2539H142.712V64.595C142.712 64.8828 142.598 65.1589 142.395 65.3624C142.192 65.5659 141.916 65.6803 141.629 65.6803C141.342 65.6803 141.067 65.5659 140.864 65.3624C140.661 65.1589 140.546 64.8828 140.546 64.595V60.2539H138.381V73.2772C138.381 73.8528 138.609 74.4049 139.015 74.812C139.421 75.219 139.972 75.4477 140.546 75.4477ZM145.96 65.6803C146.175 65.6803 146.384 65.7439 146.562 65.8632C146.74 65.9824 146.879 66.1519 146.961 66.3502C147.043 66.5485 147.064 66.7667 147.022 66.9773C146.981 67.1878 146.877 67.3812 146.726 67.5329C146.575 67.6847 146.382 67.7881 146.172 67.83C145.962 67.8718 145.744 67.8503 145.546 67.7682C145.348 67.6861 145.179 67.547 145.06 67.3685C144.941 67.19 144.878 66.9802 144.878 66.7655C144.878 66.4777 144.992 66.2017 145.195 65.9981C145.398 65.7946 145.673 65.6803 145.96 65.6803Z" fill="#88D1FF"/>
<path d="M118.89 75.4477H127.553C128.127 75.4477 128.678 75.219 129.084 74.812C129.49 74.4049 129.718 73.8528 129.718 73.2772V60.2539H125.387V62.4244C125.387 62.7123 125.273 62.9883 125.07 63.1919C124.867 63.3954 124.591 63.5097 124.304 63.5097C124.017 63.5097 123.742 63.3954 123.539 63.1919C123.335 62.9883 123.221 62.7123 123.221 62.4244V60.2539H121.056V64.595C121.056 64.8828 120.942 65.1589 120.739 65.3624C120.536 65.5659 120.26 65.6803 119.973 65.6803C119.686 65.6803 119.41 65.5659 119.207 65.3624C119.004 65.1589 118.89 64.8828 118.89 64.595V60.2539H116.725V73.2772C116.725 73.8528 116.953 74.4049 117.359 74.812C117.765 75.219 118.316 75.4477 118.89 75.4477ZM124.304 65.6803C124.518 65.6803 124.728 65.7439 124.906 65.8632C125.084 65.9824 125.223 66.1519 125.305 66.3502C125.386 66.5485 125.408 66.7667 125.366 66.9773C125.324 67.1878 125.221 67.3812 125.07 67.5329C124.918 67.6847 124.725 67.7881 124.515 67.83C124.305 67.8718 124.088 67.8503 123.89 67.7682C123.692 67.6861 123.523 67.547 123.404 67.3685C123.285 67.19 123.221 66.9802 123.221 66.7655C123.221 66.4777 123.335 66.2017 123.539 65.9981C123.742 65.7946 124.017 65.6803 124.304 65.6803Z" fill="#076AAB"/>
<path d="M106.979 56.9961H104.813C104.526 56.9961 104.251 57.1104 104.048 57.314C103.845 57.5175 103.73 57.7935 103.73 58.0814V116.686C103.73 116.974 103.845 117.25 104.048 117.453C104.251 117.657 104.526 117.771 104.813 117.771H106.979C107.266 117.771 107.541 117.657 107.745 117.453C107.948 117.25 108.062 116.974 108.062 116.686V58.0814C108.062 57.7935 107.948 57.5175 107.745 57.314C107.541 57.1104 107.266 56.9961 106.979 56.9961Z" fill="#076AAB"/>
<path d="M163.284 56.9961H161.118C160.831 56.9961 160.555 57.1104 160.352 57.314C160.149 57.5175 160.035 57.7935 160.035 58.0814V116.686C160.035 116.974 160.149 117.25 160.352 117.453C160.555 117.657 160.831 117.771 161.118 117.771H163.284C163.571 117.771 163.846 117.657 164.049 117.453C164.252 117.25 164.366 116.974 164.366 116.686V58.0814C164.366 57.7935 164.252 57.5175 164.049 57.314C163.846 57.1104 163.571 56.9961 163.284 56.9961Z" fill="#076AAB"/>
<path d="M140.545 77.6172H127.551H118.889H110.227V79.7877H157.869V77.6172H149.207H140.545Z" fill="#076AAB"/>
<path d="M138.381 90.6406V103.664C138.381 104.24 138.609 104.792 139.015 105.199C139.421 105.606 139.972 105.834 140.546 105.834H149.209C149.783 105.834 150.334 105.606 150.74 105.199C151.146 104.792 151.374 104.24 151.374 103.664V90.6406H147.043V92.8112C147.043 93.099 146.929 93.375 146.726 93.5786C146.523 93.7821 146.248 93.8964 145.96 93.8964C145.673 93.8964 145.398 93.7821 145.195 93.5786C144.992 93.375 144.878 93.099 144.878 92.8112V90.6406H142.712V94.9817C142.712 95.2695 142.598 95.5456 142.395 95.7491C142.192 95.9526 141.916 96.067 141.629 96.067C141.342 96.067 141.067 95.9526 140.864 95.7491C140.661 95.5456 140.546 95.2695 140.546 94.9817V90.6406H138.381ZM145.96 96.067C146.175 96.067 146.384 96.1306 146.562 96.2499C146.74 96.3691 146.879 96.5386 146.961 96.7369C147.043 96.9352 147.064 97.1535 147.022 97.364C146.981 97.5745 146.877 97.7679 146.726 97.9197C146.575 98.0714 146.382 98.1748 146.172 98.2167C145.962 98.2585 145.744 98.2371 145.546 98.1549C145.348 98.0728 145.179 97.9337 145.06 97.7552C144.941 97.5767 144.878 97.3669 144.878 97.1523C144.878 96.8644 144.992 96.5884 145.195 96.3848C145.398 96.1813 145.673 96.067 145.96 96.067Z" fill="#076AAB"/>
</g>
<path d="M256.754 93.0257L243.714 63.8633H203.407V118.725H141.533H98.1833H70.7988V131.197H83.8401C83.7358 131.906 83.664 132.625 83.664 133.363C83.664 141.447 90.1644 148 98.1837 148C106.203 148 112.703 141.446 112.703 133.363C112.703 132.625 112.632 131.906 112.527 131.197H127.19C127.086 131.906 127.014 132.625 127.014 133.363C127.014 141.447 133.515 148 141.534 148C149.552 148 156.053 141.446 156.053 133.363C156.053 132.625 155.982 131.906 155.878 131.197H203.408H206.26C206.156 131.906 206.084 132.625 206.084 133.363C206.084 141.447 212.584 148 220.604 148C228.622 148 235.123 141.446 235.123 133.363C235.123 132.625 235.052 131.906 234.947 131.197H256.754V93.0257ZM98.1833 139.092C95.0444 139.092 92.4997 136.527 92.4997 133.363C92.4997 132.595 92.6519 131.866 92.9226 131.197C93.7701 129.107 95.8045 127.633 98.1828 127.633C100.561 127.633 102.596 129.107 103.443 131.197C103.714 131.866 103.866 132.595 103.866 133.363C103.866 136.527 101.322 139.092 98.1833 139.092ZM141.533 139.092C138.394 139.092 135.849 136.527 135.849 133.363C135.849 132.595 136.001 131.866 136.272 131.197C137.119 129.107 139.154 127.633 141.532 127.633C143.911 127.633 145.945 129.107 146.792 131.197C147.063 131.866 147.215 132.595 147.215 133.363C147.216 136.527 144.671 139.092 141.533 139.092ZM220.602 139.092C217.463 139.092 214.918 136.527 214.918 133.363C214.918 132.595 215.07 131.866 215.341 131.197C216.188 129.107 218.223 127.633 220.601 127.633C222.979 127.633 225.014 129.107 225.861 131.197C226.132 131.866 226.284 132.595 226.284 133.363C226.285 136.527 223.741 139.092 220.602 139.092ZM213.004 92.4768C212.786 92.4768 212.609 92.3002 212.609 92.0823V72.3804C212.609 72.1626 212.785 71.986 213.004 71.986H237.817C238.34 71.986 238.813 72.2957 239.023 72.7753L247.631 92.4768H213.004Z" fill="#076AAB"/>
<defs>
<radialGradient id="paint0_radial_11074_17321" cx="0" cy="0" r="1" gradientUnits="userSpaceOnUse" gradientTransform="translate(164 74) rotate(90) scale(74 164)">
<stop stop-color="white"/>
<stop offset="0.5" stop-color="#F4FBFF"/>
<stop offset="1" stop-color="#EDF8FF"/>
</radialGradient>
<clipPath id="clip0_11074_17321">
<rect width="64.9676" height="61.5483" fill="white" transform="translate(101.564 54.8242)"/>
</clipPath>
</defs>
</svg>
