<svg width="96" height="96" viewBox="0 0 96 96" fill="none" xmlns="http://www.w3.org/2000/svg">
<rect width="96" height="96" rx="24" fill="url(#paint0_radial_11074_18895)"/>
<g clip-path="url(#clip0_11074_18895)">
<path d="M60.5175 32.1958C60.5175 31.0697 60.078 30.0096 59.2815 29.2131L55.3045 25.236C54.519 24.4505 53.404 24 52.2944 24H52.0527V32.4375H60.5176L60.5175 32.1958Z" fill="#076AAB"/>
<path d="M49.6816 53.0191C49.9508 52.202 50.4204 51.4412 51.0329 50.8246L60.5543 41.3415V35.25H50.6731C49.8958 35.25 49.3125 34.621 49.3125 33.8438V24H28.2188C25.8924 24 24 25.8924 24 28.2188V67.7812C24 70.1076 25.8924 72 28.2188 72H56.2981C58.6244 72 60.5543 70.1076 60.5543 67.7812V57.2858L59.009 58.7937C58.3828 59.4144 57.6495 59.8662 56.8227 60.1423L52.3513 61.6351L51.6701 61.6722C50.544 61.6722 49.4783 61.1242 48.8165 60.2069C48.16 59.2937 47.9815 58.1099 48.3385 57.0401L49.6816 53.0191ZM31.0312 49.3125H45.0481C45.8254 49.3125 46.4543 49.9415 46.4543 50.7188C46.4543 51.496 45.8254 52.125 45.0481 52.125H31.0312C30.254 52.125 29.625 51.496 29.625 50.7188C29.625 49.9415 30.254 49.3125 31.0312 49.3125ZM29.625 45.0938C29.625 44.3165 30.254 43.6875 31.0312 43.6875H45.0481C45.8254 43.6875 46.4543 44.3165 46.4543 45.0938C46.4543 45.871 45.8254 46.5 45.0481 46.5H31.0312C30.254 46.5 29.625 45.871 29.625 45.0938ZM29.625 56.3438C29.625 55.5665 30.254 54.9375 31.0312 54.9375H45.0481C45.8254 54.9375 46.4543 55.5665 46.4543 56.3438C46.4543 57.121 45.8254 57.75 45.0481 57.75H31.0312C30.254 57.75 29.625 57.121 29.625 56.3438ZM50.6731 63.375C51.4504 63.375 52.0793 64.004 52.0793 64.7812C52.0793 65.5585 51.4505 66.1875 50.6731 66.1875H42.2356C41.4583 66.1875 40.8293 65.5585 40.8293 64.7812C40.8293 64.004 41.4583 63.375 42.2356 63.375H50.6731ZM31.0312 40.875C30.254 40.875 29.625 40.246 29.625 39.4688C29.625 38.6915 30.254 38.0625 31.0312 38.0625H50.6731C51.4504 38.0625 52.0793 38.6915 52.0793 39.4688C52.0793 40.246 51.4504 40.875 50.6731 40.875H31.0312Z" fill="#076AAB"/>
<path d="M52.2295 54.2617L51.0061 57.9321C50.8227 58.482 51.3459 59.005 51.8958 58.8213L55.564 57.5962L52.2295 54.2617Z" fill="#8BD500"/>
<path d="M63.1501 42.6836L53.8887 51.9451L57.8829 55.9393C59.9761 53.8457 64.0491 49.7721 67.1439 46.6773L63.1501 42.6836Z" fill="#8BD500"/>
<path d="M71.173 38.6525C70.6786 38.1553 69.9508 37.8711 69.1789 37.8711C68.4071 37.8711 67.6793 38.1553 67.1821 38.6539L65.1387 40.6974L69.1322 44.6909C70.251 43.5721 71.0242 42.7989 71.1759 42.6473C72.2744 41.5471 72.2743 39.7552 71.173 38.6525Z" fill="#8BD500"/>
<path d="M71.1758 42.645L71.176 42.6448C71.1795 42.6412 71.1811 42.6396 71.184 42.6367C71.1811 42.6397 71.1795 42.6413 71.1758 42.645Z" fill="black"/>
<path d="M71.1836 42.6375C71.1881 42.633 71.1933 42.6277 71.1961 42.625C71.1932 42.6278 71.1881 42.633 71.1836 42.6375Z" fill="black"/>
<path d="M71.1973 42.6241C71.2064 42.615 71.2065 42.6148 71.1973 42.6241V42.6241Z" fill="black"/>
</g>
<defs>
<radialGradient id="paint0_radial_11074_18895" cx="0" cy="0" r="1" gradientUnits="userSpaceOnUse" gradientTransform="translate(48 48) rotate(90) scale(48)">
<stop stop-color="white"/>
<stop offset="0.33" stop-color="#F4FBFF"/>
<stop offset="0.66" stop-color="#EDF8FF"/>
<stop offset="1" stop-color="#DEF2FF"/>
</radialGradient>
<clipPath id="clip0_11074_18895">
<rect width="48" height="48" fill="white" transform="translate(24 24)"/>
</clipPath>
</defs>
</svg>
