<svg width="96" height="96" viewBox="0 0 96 96" fill="none" xmlns="http://www.w3.org/2000/svg">
<path d="M0 24C0 10.7452 10.7452 0 24 0H72C85.2548 0 96 10.7452 96 24V72C96 85.2548 85.2548 96 72 96H24C10.7452 96 0 85.2548 0 72V24Z" fill="url(#paint0_radial_11074_29937)"/>
<g clip-path="url(#clip0_11074_29937)">
<path d="M31.4062 31.4062H49.5938V40.5938H31.4062V31.4062Z" fill="#076AAB"/>
<path d="M45.1875 60C45.1875 55.8524 46.9015 52.0977 49.6579 49.4062H48C47.2234 49.4062 46.5938 48.7766 46.5938 48C46.5938 47.2234 47.2234 46.5938 48 46.5938H51C51.5523 46.5938 52.0289 46.913 52.259 47.3763C53.6962 46.4918 55.2949 45.8452 57 45.4931V29.625C57 26.5237 55.8825 24 52.7812 24H29.625C26.5237 24 24 26.5237 24 29.625V66.375C24 69.4762 26.5237 72 29.625 72H51.3253C47.6091 69.3066 45.1875 64.9303 45.1875 60ZM28.5938 30C28.5938 29.2234 29.2234 28.5938 30 28.5938H51C51.7766 28.5938 52.4062 29.2234 52.4062 30V42C52.4062 42.7766 51.7766 43.4062 51 43.4062H30C29.2234 43.4062 28.5938 42.7766 28.5938 42V30ZM33 67.4062H30C29.2234 67.4062 28.5938 66.7766 28.5938 66C28.5938 65.2234 29.2234 64.5938 30 64.5938H33C33.7766 64.5938 34.4062 65.2234 34.4062 66C34.4062 66.7766 33.7766 67.4062 33 67.4062ZM33 61.4062H30C29.2234 61.4062 28.5938 60.7766 28.5938 60C28.5938 59.2234 29.2234 58.5938 30 58.5938H33C33.7766 58.5938 34.4062 59.2234 34.4062 60C34.4062 60.7766 33.7766 61.4062 33 61.4062ZM33 55.4062H30C29.2234 55.4062 28.5938 54.7766 28.5938 54C28.5938 53.2234 29.2234 52.5938 30 52.5938H33C33.7766 52.5938 34.4062 53.2234 34.4062 54C34.4062 54.7766 33.7766 55.4062 33 55.4062ZM33 49.4062H30C29.2234 49.4062 28.5938 48.7766 28.5938 48C28.5938 47.2234 29.2234 46.5938 30 46.5938H33C33.7766 46.5938 34.4062 47.2234 34.4062 48C34.4062 48.7766 33.7766 49.4062 33 49.4062ZM42 67.4062H39C38.2234 67.4062 37.5938 66.7766 37.5938 66C37.5938 65.2234 38.2234 64.5938 39 64.5938H42C42.7766 64.5938 43.4062 65.2234 43.4062 66C43.4062 66.7766 42.7766 67.4062 42 67.4062ZM42 61.4062H39C38.2234 61.4062 37.5938 60.7766 37.5938 60C37.5938 59.2234 38.2234 58.5938 39 58.5938H42C42.7766 58.5938 43.4062 59.2234 43.4062 60C43.4062 60.7766 42.7766 61.4062 42 61.4062ZM42 55.4062H39C38.2234 55.4062 37.5938 54.7766 37.5938 54C37.5938 53.2234 38.2234 52.5938 39 52.5938H42C42.7766 52.5938 43.4062 53.2234 43.4062 54C43.4062 54.7766 42.7766 55.4062 42 55.4062ZM42 49.4062H39C38.2234 49.4062 37.5938 48.7766 37.5938 48C37.5938 47.2234 38.2234 46.5938 39 46.5938H42C42.7766 46.5938 43.4062 47.2234 43.4062 48C43.4062 48.7766 42.7766 49.4062 42 49.4062Z" fill="#076AAB"/>
<path d="M60 48C53.3726 48 48 53.3726 48 60C48 66.6274 53.3726 72 60 72C66.6274 72 72 66.6274 72 60C72 53.3726 66.6274 48 60 48ZM64.0997 62.8528C63.8438 64.3762 62.7874 65.5867 61.4019 66.0858C61.3574 66.8223 60.7477 67.4062 60 67.4062C59.3078 67.4062 58.7337 66.9057 58.6168 66.247C57.96 66.1353 57.3629 65.893 56.6062 65.3981C55.9566 64.9725 55.7737 64.1016 56.1994 63.4509C56.6241 62.8012 57.4959 62.6194 58.1456 63.0441C58.8309 63.4931 59.0522 63.5269 59.9906 63.5212C60.8953 63.5156 61.2553 62.805 61.3256 62.3869C61.3894 62.0109 61.3181 61.5112 60.6216 61.2647C59.4534 60.8522 58.2563 60.3787 57.4078 59.7131C56.5059 59.0053 56.0906 57.7912 56.3259 56.5453C56.5676 55.2645 57.4347 54.2339 58.6075 53.8134C58.699 53.1252 59.2867 52.5938 60 52.5938C60.763 52.5938 61.3826 53.2019 61.4042 53.9597C61.7102 54.0725 62.0029 54.205 62.2726 54.3455C63.083 54.7676 63.2708 55.8443 62.6519 56.5164C62.215 56.9909 61.507 57.1053 60.9477 56.784C60.5093 56.5323 59.9908 56.327 59.5866 56.4487C59.2125 56.5612 59.1113 56.9502 59.0897 57.0665C59.0438 57.3093 59.1094 57.4724 59.1441 57.4996C59.6747 57.9158 60.6619 58.2965 61.5581 58.6124C63.3956 59.2622 64.4166 60.9666 64.0997 62.8528Z" fill="#8BD500"/>
</g>
<defs>
<radialGradient id="paint0_radial_11074_29937" cx="0" cy="0" r="1" gradientUnits="userSpaceOnUse" gradientTransform="translate(48 48) rotate(90) scale(48 48)">
<stop stop-color="white"/>
<stop offset="0.33" stop-color="#F4FBFF"/>
<stop offset="0.66" stop-color="#EDF8FF"/>
<stop offset="1" stop-color="#DEF2FF"/>
</radialGradient>
<clipPath id="clip0_11074_29937">
<rect width="48" height="48" fill="white" transform="translate(24 24)"/>
</clipPath>
</defs>
</svg>
